<svg xmlns="http://www.w3.org/2000/svg" width="1492.104" height="336.252" viewBox="0 0 1492.104 336.252"><defs><style>.a{fill:none;stroke:#2b2e30;stroke-width:4px;}</style></defs><path class="a" d="M1849.937,13686.956c6.867.858,227.487-133.916,311.614-194.865s151.085-152.8,261.824-90.137c.858,0,71.25,34.337-147.652,79.835-129.624,31.763-128.029,156.78-102.074,166.522s175.848-144.722,205.894-127.553-8.918,74.819,25.432,90.4,72.481,50.044,111.969-28.074,149.369-251.522,244.655-133.058,110.739,127.908,151.944,162.245,75.543,71.251,104.73,18.886,102.154-190.574,102.154-190.574,65.241-107.306,35.2,41.205-23.3,112.267-28.623,157.237,2.011,117.464,56.093,17.026,157.953-284.144,157.953-284.144" transform="translate(-1849.813 -13371.417)"/></svg>