<svg xmlns="http://www.w3.org/2000/svg" width="1471.104" height="327.701" viewBox="0 0 1471.104 327.701">
  <path id="Path_288" data-name="Path 288" d="M1866.908,13492.174c48.852-22.687,210.516,60.866,294.643-.083s151.085-152.8,261.824-90.137c.858,0,71.25,34.337-147.652,79.835-129.624,31.763-128.029,156.78-102.074,166.522s175.848-144.722,205.894-127.553-8.918,74.819,25.432,90.4,72.481,50.044,111.969-28.074,149.369-251.522,244.655-133.058,110.739,127.908,151.944,162.245,75.543,71.251,104.73,18.886,102.154-190.574,102.154-190.574,65.241-107.306,35.2,41.205-23.3,112.267-28.623,157.237,2.011,117.464,56.093,17.026,153.961-163.962,153.961-163.962" transform="translate(-1866.486 -13379.968)" fill="none" stroke="#FF8110" stroke-width="3"/>
</svg>
