<svg xmlns="http://www.w3.org/2000/svg" width="52.259" height="47.776"><defs><style>.a{fill:#ff8110}</style></defs><path class="a" d="M0 23.888A23.915 23.915 0 0123.893 0l20.462.034a7.909 7.909 0 010 15.818l-20.462-.034a8.08 8.08 0 00-8.07 8.07 7.909 7.909 0 01-15.818 0z"/><path class="a" d="M0 23.888c0-.137.008-.271.011-.408q-.011.2-.011.408zm52.259 15.978a7.909 7.909 0 00-7.909-7.908H23.888a8.079 8.079 0 01-8.07-8.069 7.909 7.909 0 01-15.807.408 23.911 23.911 0 0023.877 23.48H44.35a7.91 7.91 0 007.909-7.911z"/></svg>