<svg xmlns="http://www.w3.org/2000/svg" width="140.394" height="128.35"><defs><style>.a{fill:#fff}</style></defs><path class="a" d="M0 64.175A64.249 64.249 0 0164.176-.001l54.971.092a21.247 21.247 0 010 42.495l-54.971-.092a21.706 21.706 0 00-21.683 21.681 21.247 21.247 0 11-42.495 0z"/><path class="a" d="M0 64.18c0-.368.021-.729.029-1.1q-.028.544-.029 1.1zm140.399 42.92a21.248 21.248 0 00-21.247-21.246H64.176a21.705 21.705 0 01-21.677-21.678 21.247 21.247 0 01-42.466 1.1 64.237 64.237 0 0064.147 63.078h54.971a21.249 21.249 0 0021.248-21.254z"/></svg>