<svg xmlns="http://www.w3.org/2000/svg" width="52.259" height="47.776" viewBox="0 0 52.259 47.776"><defs><style>.a{fill:#ff8110;}</style></defs><g transform="translate(-130.107 -236.725)"><g transform="translate(130.107 236.725)"><path class="a" d="M130.107,260.613A23.915,23.915,0,0,1,154,236.725l20.462.034a7.909,7.909,0,0,1,0,15.818L154,252.543a8.08,8.08,0,0,0-8.07,8.07,7.909,7.909,0,0,1-15.818,0Z" transform="translate(-130.107 -236.725)"/><g transform="translate(0 23.48)"><path class="a" d="M130.107,287.208c0-.137.008-.271.011-.408Q130.107,287,130.107,287.208Z" transform="translate(-130.107 -286.8)"/><path class="a" d="M182.378,303.648a7.909,7.909,0,0,0-7.909-7.908H154.007a8.079,8.079,0,0,1-8.07-8.069,7.909,7.909,0,0,1-15.807.408,23.911,23.911,0,0,0,23.877,23.48h20.462A7.91,7.91,0,0,0,182.378,303.648Z" transform="translate(-130.119 -287.262)"/></g></g></g></svg>