<svg xmlns="http://www.w3.org/2000/svg" width="140.394" height="128.35" viewBox="0 0 140.394 128.35"><defs><style>.a{fill:#fff;}</style></defs><g transform="translate(0 -1.977)"><g transform="translate(0 1.977)"><path class="a" d="M130.107,300.9a64.249,64.249,0,0,1,64.176-64.176l54.971.092a21.247,21.247,0,0,1,0,42.495l-54.971-.092A21.706,21.706,0,0,0,172.6,300.9a21.247,21.247,0,1,1-42.495,0Z" transform="translate(-130.107 -236.725)"/><g transform="translate(0 63.08)"><path class="a" d="M130.107,287.9c0-.368.021-.729.029-1.1Q130.108,287.344,130.107,287.9Z" transform="translate(-130.107 -286.8)"/><path class="a" d="M270.5,330.594a21.248,21.248,0,0,0-21.247-21.246H194.277A21.705,21.705,0,0,1,172.6,287.67a21.247,21.247,0,0,1-42.466,1.1,64.237,64.237,0,0,0,64.147,63.078h54.971A21.249,21.249,0,0,0,270.5,330.594Z" transform="translate(-130.101 -286.574)"/></g></g></g></svg>